HIERARCHY
ROOT Hips
{
	OFFSET 0.00000 0.00000 0.00000
	CHANNELS 6 Xposition Yposition Zposition Zrotation Yrotation Xrotation 
	JOINT LHipJoint
	{
		OFFSET 0 0 0
		CHANNELS 3 Zrotation Yrotation Xrotation
		JOINT LeftHip
		{
			OFFSET 1.26600 -1.82114 0.91038
			CHANNELS 3 Zrotation Yrotation Xrotation
			JOINT LeftKnee
			{
				OFFSET 2.50076 -6.87080 0.00000
				CHANNELS 3 Zrotation Yrotation Xrotation
				JOINT LeftAnkle
				{
					OFFSET 2.57364 -7.07102 0.00000
					CHANNELS 3 Zrotation Yrotation Xrotation
					JOINT LeftToe
					{
						OFFSET 0.13572 -0.37290 1.97004
						CHANNELS 3 Zrotation Yrotation Xrotation
						End Site
						{
							OFFSET 0.00000 -0.00000 1.01383
						}
					}
				}
			}
		}
	}
	JOINT RHipJoint
	{
		OFFSET 0 0 0
		CHANNELS 3 Zrotation Yrotation Xrotation
		JOINT RightHip
		{
			OFFSET -1.20803 -1.82114 0.91038
			CHANNELS 3 Zrotation Yrotation Xrotation
			JOINT RightKnee
			{
				OFFSET -2.54916 -7.00377 0.00000
				CHANNELS 3 Zrotation Yrotation Xrotation
				JOINT RightAnkle
				{
					OFFSET -2.56374 -7.04382 0.00000
					CHANNELS 3 Zrotation Yrotation Xrotation
					JOINT RightToe
					{
						OFFSET -0.23520 -0.64621 2.09921
						CHANNELS 3 Zrotation Yrotation Xrotation
						End Site
						{
							OFFSET -0.00000 -0.00000 1.10065
						}
					}
				}
			}
		}
	}
	JOINT lowerback
	{
		OFFSET 0 0 0
		CHANNELS 3 Zrotation Yrotation Xrotation
		JOINT Chest
		{
			OFFSET 0.05492 2.10797 -0.12074
			CHANNELS 3 Zrotation Yrotation Xrotation
			JOINT Chest2
			{
				OFFSET 0.04577 2.11592 -0.04483
				CHANNELS 3 Zrotation Yrotation Xrotation
				JOINT lowerneck
				{
					OFFSET 0 0 0
					CHANNELS 3 Zrotation Yrotation Xrotation
					JOINT Neck
					{
						OFFSET -0.10759 1.80167 0.15770
						CHANNELS 3 Zrotation Yrotation Xrotation
						JOINT Head
						{
							OFFSET 0.09237 1.77509 -0.40848
							CHANNELS 3 Zrotation Yrotation Xrotation
							End Site
							{
								OFFSET 0.03805 1.84093 -0.15754
							}
						}
					}
				}
				JOINT LeftCollar
				{
					OFFSET 0 0 0
					CHANNELS 3 Zrotation Yrotation Xrotation
					JOINT LeftShoulder
					{
						OFFSET 3.42372 1.09575 -0.28209
CHANNELS 3 Zrotation Xrotation Yrotation
						JOINT LeftElbow
						{
OFFSET 0 -4.956810 0.000000
CHANNELS 3 Zrotation Xrotation Yrotation
							JOINT LeftWrist
							{
OFFSET 0 -3.409150 0.000000
CHANNELS 3 Zrotation Xrotation Yrotation
								JOINT lhand
								{
									OFFSET 0 0 0
CHANNELS 3 Zrotation Xrotation Yrotation
									JOINT LFingers
									{
OFFSET 0 -0.616400 0.000000
CHANNELS 3 Zrotation Xrotation Yrotation
										End Site
										{
OFFSET 0 -0.496960 0.000000
										}
									}
								}
								JOINT LThumb
								{
OFFSET 0 0.000000 0.000000
CHANNELS 3 Zrotation Xrotation Yrotation
									End Site
									{
OFFSET 0 -0.504550 0.504550
									}
								}
							}
						}
					}
				}
				JOINT RightCollar
				{
					OFFSET 0 0 0
					CHANNELS 3 Zrotation Yrotation Xrotation
					JOINT RightShoulder
					{
						OFFSET -3.24731 1.15872 -0.32221
CHANNELS 3 Zrotation Xrotation Yrotation
						JOINT RightElbow
						{
OFFSET 0 -5.352000 0.000000
CHANNELS 3 Zrotation Xrotation Yrotation
							JOINT RightWrist
							{
OFFSET 0 -3.437210 -0.000000
CHANNELS 3 Zrotation Xrotation Yrotation
								JOINT rhand
								{
									OFFSET 0 0 0
CHANNELS 3 Zrotation Xrotation Yrotation
									JOINT RFingers
									{
OFFSET 0 -0.720090 0.000000
CHANNELS 3 Zrotation Xrotation Yrotation
										End Site
										{
OFFSET 0 -0.580560 0.000000
										}
									}
								}
								JOINT RThumb
								{
OFFSET 0 0.000000 0.000000
CHANNELS 3 Zrotation Xrotation Yrotation
									End Site
									{
OFFSET 0 -0.589420 0.589420
									}
								}
							}
						}
					}
				}
			}
		}
	}
}
MOTION
Frames: 11
Frame Time: 0.008333333333333333
-10.999600 17.060200 -10.575800 -76.152900 77.132000 -77.925900 0.000000 0.000000 0.000000 -1.356100 -8.047500 -29.046600 10.024300 17.423500 59.569400 0.167600 -8.927800 -9.007500 0.055500 1.520800 4.183200 0.000000 0.000000 0.000000 35.070700 -6.815200 3.989800 -1.006300 -6.383000 17.899800 -1.265200 3.324700 -20.426000 -0.368200 -3.897900 10.789600 11.569600 1.939400 7.396900 4.304800 3.581200 4.228800 -2.188200 2.064100 0.707900 -9.177400 -2.020500 -15.126800 0.974800 1.115500 36.302200 2.350000 -0.181200 15.265200 -0.000000 0.000000 0.000000 -6.404300 9.208600 5.609800 10.293700 -17.197600 1.560700 11.836600 12.241400 -21.861100 0.000000 0.000000 0.000000 -7.125000 0.000000 0.000000 -17.133900 51.461600 2.795900 -0.000000 0.000000 0.000000 -5.296400 1.477300 15.308900 -12.611400 -20.715200 -2.314000 -19.268700 -9.254600 -11.494200 0.000000 0.000000 0.000000 7.125000 0.000000 -0.000000 5.515000 17.856800 3.574900
-10.685252 17.080780 -10.536484 -83.928410 79.010816 -84.401215 0.000000 0.000000 0.000000 -3.387072 -9.659058 -31.820347 7.154390 15.458865 49.452868 0.178362 -8.316092 -8.895250 0.003508 -0.378453 -1.039892 0.000000 0.000000 0.000000 33.713830 -7.209584 4.085834 -0.888452 -6.008147 16.807989 -1.337681 2.202084 -21.256071 -0.230007 -3.085039 8.515781 10.131400 1.965824 6.962745 3.755788 3.456322 3.729816 -1.970194 1.931853 0.347268 -9.579387 -2.339922 -14.898378 1.378404 0.598246 36.214501 2.501313 -0.390484 15.203219 0.000000 0.000000 0.000000 -5.302977 9.142129 8.102536 9.450239 -15.875107 1.320600 12.309153 16.736030 -21.689169 0.000000 0.000000 0.000000 -7.125000 0.000000 0.000000 -16.602734 51.373631 2.668402 0.000000 0.000000 0.000000 -5.522911 1.829032 13.847002 -12.267880 -20.205169 -2.194011 -19.671793 -9.409724 -11.539660 0.000000 0.000000 0.000000 7.125000 0.000000 0.000000 5.233441 17.776514 3.399992
-10.292448 17.058900 -10.542881 -91.535295 79.606236 -91.347442 0.000000 0.000000 0.000000 -4.407206 -10.358616 -32.386280 4.280954 12.522339 37.609968 0.069889 -8.580316 -7.288605 0.089053 1.923877 5.295362 0.000000 0.000000 0.000000 33.368344 -7.644066 6.031756 -0.647730 -5.147888 14.330898 -1.296592 0.552680 -21.362058 -0.214568 -2.964778 8.181956 9.858042 1.883653 7.131093 3.533315 3.356819 3.501909 -2.063542 1.853943 0.000093 -9.517845 -2.702036 -14.745343 1.487720 -0.087932 35.695371 2.405023 -0.652663 14.963836 0.000000 0.000000 0.000000 -4.057060 7.971883 7.657868 9.351215 -15.718409 1.293635 14.042660 18.756329 -22.278711 0.000000 0.000000 0.000000 -7.125000 0.000000 0.000000 -15.191324 52.237807 2.758791 0.000000 0.000000 0.000000 -5.781857 2.182343 14.539698 -12.872175 -21.099668 -2.407105 -19.718623 -11.026641 -11.224080 0.000000 0.000000 0.000000 7.125000 0.000000 0.000000 5.194367 18.104763 3.336929
-9.831301 17.027335 -10.600612 -94.451933 78.978537 -93.659813 0.000000 0.000000 0.000000 -3.186959 -12.509621 -32.601405 2.662841 10.126222 29.388138 0.113236 -8.498575 -7.965928 0.019479 0.664039 1.825998 0.000000 0.000000 0.000000 33.649459 -9.137235 8.664636 -0.341459 -3.754188 10.386234 -1.122527 0.446899 -19.890579 -0.264303 -3.307268 9.135336 10.523904 1.761621 7.252444 3.841835 3.283921 3.399849 -2.111833 1.819707 -0.159975 -9.445857 -2.801276 -14.922800 1.095590 -0.090342 35.697893 2.227432 -0.699153 15.012132 0.000000 0.000000 0.000000 -3.552323 7.196527 2.529266 11.062157 -18.383120 1.795771 14.359635 13.467897 -23.087076 0.000000 0.000000 0.000000 -7.125000 0.000000 0.000000 -15.251321 53.083043 3.089571 0.000000 0.000000 0.000000 -6.306291 1.389209 15.255047 -12.949477 -21.213160 -2.434992 -18.975642 -10.467986 -10.412648 0.000000 0.000000 0.000000 7.125000 0.000000 0.000000 5.708251 19.012271 3.553959
-9.280802 17.011090 -10.675772 -97.568727 81.044159 -95.484440 0.000000 0.000000 0.000000 -5.753816 -12.500735 -33.279596 2.086894 9.044865 25.935706 -0.100459 -10.529348 -5.662563 0.186793 2.783678 7.677091 0.000000 0.000000 0.000000 31.092127 -8.993302 9.962976 -0.297909 -3.509508 9.700624 -1.069173 -0.865150 -19.871172 -0.003716 -0.393614 1.081502 8.291182 1.921017 6.463558 3.227979 3.217743 3.153489 -1.494863 1.741533 -0.084155 -10.174239 -2.896714 -15.355174 2.149264 -0.319616 36.061272 2.772481 -0.763096 15.306976 0.000000 0.000000 0.000000 -2.694230 7.188258 -3.917496 14.396853 -23.298037 2.983968 15.490315 7.563840 -22.817223 0.000000 0.000000 0.000000 -7.125000 0.000000 0.000000 -14.012686 53.020100 2.809255 0.000000 0.000000 0.000000 -6.086586 -0.002096 15.228843 -12.893449 -21.130820 -2.414703 -19.680794 -10.583147 -11.413623 0.000000 0.000000 0.000000 7.125000 0.000000 0.000000 5.224565 17.908402 3.379041
-8.657018 16.981873 -10.766310 -96.787169 80.620331 -94.420994 0.000000 0.000000 0.000000 -6.033642 -11.119587 -32.054382 2.182258 9.235826 26.535747 -0.229505 -10.189846 -2.334926 0.185324 2.772149 7.645007 0.000000 0.000000 0.000000 31.018087 -8.465757 12.494836 -0.291248 -3.470251 9.590857 -0.985200 -0.743000 -19.040318 -0.003616 0.386510 -1.061994 8.016569 1.887520 6.892960 3.498973 3.231090 2.882752 -1.093960 1.720272 -0.636780 -9.684458 -2.888296 -15.160490 1.845799 -0.386975 35.971677 2.542728 -0.764159 15.215054 0.000000 0.000000 0.000000 -2.148850 7.641168 -7.285237 18.424499 -28.697245 4.751373 15.559595 5.063946 -21.165008 0.000000 0.000000 0.000000 -7.125000 0.000000 0.000000 -13.241618 51.397551 2.117889 0.000000 0.000000 0.000000 -5.619553 -0.480499 16.164888 -13.831805 -22.493644 -2.763407 -20.521177 -11.608556 -11.448695 0.000000 0.000000 0.000000 7.125000 0.000000 0.000000 4.635983 17.801997 3.006617
-7.930520 17.072965 -10.925158 -96.207545 81.304190 -93.529324 0.000000 0.000000 0.000000 -7.519682 -10.359042 -30.872291 2.269824 9.406852 27.076557 -0.231261 -8.497933 2.803650 0.428324 4.195313 11.627627 0.000000 0.000000 0.000000 29.367450 -9.164724 14.182342 -0.314158 -3.600153 9.954540 -0.649890 -1.774756 -15.972115 -0.272408 3.349545 -9.254337 7.146816 2.163396 6.690767 3.317519 3.510727 2.742370 -0.815457 1.842786 -0.691824 -9.749102 -3.272966 -14.825740 2.200493 -1.081564 36.166353 2.592717 -1.013673 15.285595 0.000000 0.000000 0.000000 -0.348053 5.870780 -11.592969 19.376579 -29.883787 5.217181 18.328046 2.200736 -19.202338 0.000000 0.000000 0.000000 -7.125000 0.000000 0.000000 -9.849171 49.870907 1.192815 0.000000 0.000000 0.000000 -4.852430 -0.396760 15.868652 -15.324225 -24.595714 -3.359856 -20.171827 -12.640399 -10.707347 0.000000 0.000000 0.000000 7.125000 0.000000 0.000000 4.865657 18.613821 3.069150
-7.158530 17.187255 -11.137735 -82.495186 81.580330 -79.976379 0.000000 0.000000 0.000000 -9.306060 -6.627626 -28.596876 2.288626 9.443066 27.191393 -0.302756 -9.715161 4.160907 1.049059 6.508891 18.269781 0.000000 0.000000 0.000000 27.308201 -7.198018 12.109928 -1.125315 -6.729172 18.918924 -0.432279 1.068534 -12.088755 -0.128685 2.305869 -6.351981 6.778883 2.514034 6.372757 3.103361 3.902961 2.804282 -0.837265 2.039993 -0.435091 -8.409870 -2.997039 -14.563703 1.418941 -0.745494 36.781075 2.104133 -0.790228 15.472977 0.000000 0.000000 0.000000 0.743388 5.123252 -12.918441 20.858789 -31.663032 5.975753 17.762786 0.861313 -20.026979 0.000000 0.000000 0.000000 -7.125000 0.000000 0.000000 -10.674486 50.618639 1.492997 0.000000 0.000000 0.000000 -4.113896 -0.323304 17.311980 -16.987431 -26.841021 -4.081753 -19.720250 -14.468591 -11.150024 0.000000 0.000000 0.000000 7.125000 0.000000 0.000000 5.191929 18.182444 3.326438
-6.469309 17.337984 -11.315058 -68.934108 82.888031 -66.809562 0.000000 0.000000 0.000000 -12.487296 -4.563375 -24.935487 2.053551 8.976539 25.722103 -0.352886 -10.474434 3.329820 1.473568 7.670095 21.716704 0.000000 0.000000 0.000000 24.213781 -4.777445 5.520745 -3.567789 -11.555553 34.185187 -0.080203 0.777425 -5.104540 -0.010883 -0.634085 1.742618 4.270903 2.099304 6.692034 3.028056 3.209538 2.843896 0.495891 1.664400 -0.754393 -8.105457 -2.295348 -14.382567 0.897139 0.413077 37.049003 2.028393 -0.335507 15.486571 0.000000 0.000000 0.000000 1.572484 4.825067 -14.255311 21.772711 -32.718902 6.462682 18.191863 0.848960 -19.635705 0.000000 0.000000 0.000000 -7.125000 0.000000 0.000000 -10.124208 50.290705 1.332177 0.000000 0.000000 0.000000 -4.713841 -1.075280 20.157868 -18.601709 -28.920280 -4.837010 -18.527843 -13.811502 -11.731655 0.000000 0.000000 0.000000 7.125000 0.000000 0.000000 6.037136 17.667414 3.942217
-5.884414 17.459171 -11.437217 -48.787397 85.332132 -47.001115 0.000000 0.000000 0.000000 -17.154103 -3.138049 -20.402605 1.467589 7.655359 21.672384 -0.330896 -10.134095 3.712995 2.378768 9.614025 27.735630 0.000000 0.000000 0.000000 20.367772 -2.654137 -2.390607 -7.194279 -15.490924 49.601058 -0.041446 -2.541007 -5.606026 -0.022635 -0.960432 2.640044 0.811601 1.864079 7.048763 1.946259 2.642514 2.992611 1.341671 1.350953 -0.918272 -6.916281 -2.110062 -14.586258 0.450012 0.473456 37.170724 1.638026 -0.220017 15.577791 0.000000 0.000000 0.000000 4.246782 3.626314 -17.361325 22.080520 -33.067941 6.629782 19.507834 0.821796 -20.202869 0.000000 0.000000 0.000000 -7.125000 0.000000 0.000000 -9.031352 51.085861 1.363570 0.000000 0.000000 0.000000 -3.786373 -2.000894 20.718922 -21.184051 -32.041908 -6.147589 -18.434426 -14.838282 -11.612139 0.000000 0.000000 0.000000 7.125000 0.000000 0.000000 6.101046 17.799437 3.966659
-5.378866 17.538736 -11.528830 -41.714108 86.348319 -40.558309 0.000000 0.000000 0.000000 -19.096267 -3.272737 -17.106411 1.361584 7.385620 20.863065 -0.328049 -10.221866 2.022387 1.913501 8.683287 24.809715 0.000000 0.000000 0.000000 19.267332 -1.434571 -9.281412 -9.883053 -17.343396 59.096656 -0.238122 -3.238190 -10.994927 -0.004474 0.402505 -1.106089 -0.938512 0.746177 7.444605 2.120942 1.051670 3.254768 2.627530 0.545164 -0.868731 -7.807194 -1.572429 -14.664536 0.614059 1.601893 37.932137 2.076942 0.134395 15.930750 0.000000 0.000000 0.000000 4.702671 1.804644 -15.852809 21.715455 -32.653991 6.431678 17.942676 1.707847 -19.807594 0.000000 0.000000 0.000000 -7.125000 0.000000 0.000000 -10.423839 50.425293 1.407132 0.000000 0.000000 0.000000 -4.823173 -2.622825 23.666739 -23.562697 -34.698365 -7.456167 -19.962334 -17.403743 -11.913967 0.000000 0.000000 0.000000 7.125000 0.000000 0.000000 5.038529 17.358243 3.318734
